<mxfile host="www.draw.io" modified="2019-11-21T09:30:55.618Z" agent="Mozilla/5.0 (Windows NT 10.0; Win64; x64) AppleWebKit/537.36 (KHTML, like Gecko) Chrome/78.0.3904.97 Safari/537.36" etag="Ctyc1gHQjvrTmk8KtXnI" version="12.2.7" type="github" pages="1">
  <diagram id="OtpJZO7zIIz3gZ6J2ZQf" name="Page-1">
    <mxGraphModel dx="1038" dy="491" grid="0" gridSize="10" guides="1" tooltips="1" connect="1" arrows="1" fold="1" page="1" pageScale="1" pageWidth="827" pageHeight="1169" math="0" shadow="0">
      <root>
        <mxCell id="0"/>
        <mxCell id="1" parent="0"/>
        <mxCell id="7Jza5CA4qE4BxIB_BADM-13" style="edgeStyle=none;rounded=0;orthogonalLoop=1;jettySize=auto;html=1;exitX=0.5;exitY=1;exitDx=0;exitDy=0;entryX=0;entryY=0.5;entryDx=0;entryDy=0;startArrow=classic;startFill=1;" parent="1" source="7Jza5CA4qE4BxIB_BADM-1" target="7Jza5CA4qE4BxIB_BADM-5" edge="1">
          <mxGeometry relative="1" as="geometry"/>
        </mxCell>
        <mxCell id="GdXQ_3ZXdij7vv1rvwBt-1" style="rounded=0;orthogonalLoop=1;jettySize=auto;html=1;exitX=0.5;exitY=1;exitDx=0;exitDy=0;entryX=0;entryY=0.5;entryDx=0;entryDy=0;startArrow=classic;startFill=1;" edge="1" parent="1" source="7Jza5CA4qE4BxIB_BADM-1" target="7Jza5CA4qE4BxIB_BADM-6">
          <mxGeometry relative="1" as="geometry"/>
        </mxCell>
        <mxCell id="GdXQ_3ZXdij7vv1rvwBt-2" style="edgeStyle=none;rounded=0;orthogonalLoop=1;jettySize=auto;html=1;exitX=0.5;exitY=1;exitDx=0;exitDy=0;" edge="1" parent="1" source="7Jza5CA4qE4BxIB_BADM-1">
          <mxGeometry relative="1" as="geometry">
            <mxPoint x="235" y="380" as="targetPoint"/>
          </mxGeometry>
        </mxCell>
        <mxCell id="7Jza5CA4qE4BxIB_BADM-1" value="Peer" style="ellipse;whiteSpace=wrap;html=1;aspect=fixed;" parent="1" vertex="1">
          <mxGeometry x="200" y="150" width="70" height="70" as="geometry"/>
        </mxCell>
        <mxCell id="GdXQ_3ZXdij7vv1rvwBt-8" style="edgeStyle=none;rounded=0;orthogonalLoop=1;jettySize=auto;html=1;exitX=0.5;exitY=0;exitDx=0;exitDy=0;entryX=1;entryY=0.5;entryDx=0;entryDy=0;startArrow=classic;startFill=1;" edge="1" parent="1" source="7Jza5CA4qE4BxIB_BADM-2" target="7Jza5CA4qE4BxIB_BADM-4">
          <mxGeometry relative="1" as="geometry"/>
        </mxCell>
        <mxCell id="7Jza5CA4qE4BxIB_BADM-2" value="Peer" style="ellipse;whiteSpace=wrap;html=1;aspect=fixed;" parent="1" vertex="1">
          <mxGeometry x="200" y="380" width="70" height="70" as="geometry"/>
        </mxCell>
        <mxCell id="7Jza5CA4qE4BxIB_BADM-8" style="edgeStyle=none;rounded=0;orthogonalLoop=1;jettySize=auto;html=1;exitX=1;exitY=0.5;exitDx=0;exitDy=0;entryX=0.5;entryY=1;entryDx=0;entryDy=0;startArrow=classic;startFill=1;" parent="1" source="7Jza5CA4qE4BxIB_BADM-3" target="7Jza5CA4qE4BxIB_BADM-1" edge="1">
          <mxGeometry relative="1" as="geometry"/>
        </mxCell>
        <mxCell id="7Jza5CA4qE4BxIB_BADM-9" style="edgeStyle=none;rounded=0;orthogonalLoop=1;jettySize=auto;html=1;exitX=1;exitY=0.5;exitDx=0;exitDy=0;entryX=0;entryY=0.5;entryDx=0;entryDy=0;startArrow=classic;startFill=1;" parent="1" source="7Jza5CA4qE4BxIB_BADM-3" target="7Jza5CA4qE4BxIB_BADM-5" edge="1">
          <mxGeometry relative="1" as="geometry"/>
        </mxCell>
        <mxCell id="7Jza5CA4qE4BxIB_BADM-10" style="edgeStyle=none;rounded=0;orthogonalLoop=1;jettySize=auto;html=1;exitX=1;exitY=0.5;exitDx=0;exitDy=0;entryX=0;entryY=0.5;entryDx=0;entryDy=0;startArrow=classic;startFill=1;" parent="1" source="7Jza5CA4qE4BxIB_BADM-3" target="7Jza5CA4qE4BxIB_BADM-6" edge="1">
          <mxGeometry relative="1" as="geometry"/>
        </mxCell>
        <mxCell id="7Jza5CA4qE4BxIB_BADM-11" style="edgeStyle=none;rounded=0;orthogonalLoop=1;jettySize=auto;html=1;exitX=1;exitY=0.5;exitDx=0;exitDy=0;entryX=0.5;entryY=0;entryDx=0;entryDy=0;startArrow=classic;startFill=1;" parent="1" source="7Jza5CA4qE4BxIB_BADM-3" target="7Jza5CA4qE4BxIB_BADM-2" edge="1">
          <mxGeometry relative="1" as="geometry"/>
        </mxCell>
        <mxCell id="7Jza5CA4qE4BxIB_BADM-12" style="edgeStyle=none;rounded=0;orthogonalLoop=1;jettySize=auto;html=1;exitX=1;exitY=0.5;exitDx=0;exitDy=0;entryX=1;entryY=0.5;entryDx=0;entryDy=0;startArrow=classic;startFill=1;" parent="1" source="7Jza5CA4qE4BxIB_BADM-3" target="7Jza5CA4qE4BxIB_BADM-4" edge="1">
          <mxGeometry relative="1" as="geometry"/>
        </mxCell>
        <mxCell id="7Jza5CA4qE4BxIB_BADM-3" value="Peer" style="ellipse;whiteSpace=wrap;html=1;aspect=fixed;" parent="1" vertex="1">
          <mxGeometry x="100" y="220" width="70" height="70" as="geometry"/>
        </mxCell>
        <mxCell id="GdXQ_3ZXdij7vv1rvwBt-9" style="edgeStyle=none;rounded=0;orthogonalLoop=1;jettySize=auto;html=1;exitX=1;exitY=0.5;exitDx=0;exitDy=0;entryX=0.5;entryY=1;entryDx=0;entryDy=0;startArrow=classic;startFill=1;" edge="1" parent="1" source="7Jza5CA4qE4BxIB_BADM-4" target="7Jza5CA4qE4BxIB_BADM-1">
          <mxGeometry relative="1" as="geometry"/>
        </mxCell>
        <mxCell id="7Jza5CA4qE4BxIB_BADM-4" value="Peer" style="ellipse;whiteSpace=wrap;html=1;aspect=fixed;direction=east;" parent="1" vertex="1">
          <mxGeometry x="100" y="310" width="70" height="70" as="geometry"/>
        </mxCell>
        <mxCell id="GdXQ_3ZXdij7vv1rvwBt-3" style="edgeStyle=none;rounded=0;orthogonalLoop=1;jettySize=auto;html=1;exitX=0;exitY=0.5;exitDx=0;exitDy=0;entryX=0;entryY=0.5;entryDx=0;entryDy=0;startArrow=classic;startFill=1;" edge="1" parent="1" source="7Jza5CA4qE4BxIB_BADM-5" target="7Jza5CA4qE4BxIB_BADM-6">
          <mxGeometry relative="1" as="geometry"/>
        </mxCell>
        <mxCell id="GdXQ_3ZXdij7vv1rvwBt-4" style="edgeStyle=none;rounded=0;orthogonalLoop=1;jettySize=auto;html=1;exitX=0;exitY=0.5;exitDx=0;exitDy=0;entryX=0.5;entryY=0;entryDx=0;entryDy=0;startArrow=classic;startFill=1;" edge="1" parent="1" source="7Jza5CA4qE4BxIB_BADM-5" target="7Jza5CA4qE4BxIB_BADM-2">
          <mxGeometry relative="1" as="geometry"/>
        </mxCell>
        <mxCell id="GdXQ_3ZXdij7vv1rvwBt-5" style="edgeStyle=none;rounded=0;orthogonalLoop=1;jettySize=auto;html=1;exitX=0;exitY=0.5;exitDx=0;exitDy=0;entryX=1;entryY=0.5;entryDx=0;entryDy=0;startArrow=classic;startFill=1;" edge="1" parent="1" source="7Jza5CA4qE4BxIB_BADM-5" target="7Jza5CA4qE4BxIB_BADM-4">
          <mxGeometry relative="1" as="geometry"/>
        </mxCell>
        <mxCell id="7Jza5CA4qE4BxIB_BADM-5" value="Peer" style="ellipse;whiteSpace=wrap;html=1;aspect=fixed;" parent="1" vertex="1">
          <mxGeometry x="300" y="220" width="70" height="70" as="geometry"/>
        </mxCell>
        <mxCell id="GdXQ_3ZXdij7vv1rvwBt-6" style="edgeStyle=none;rounded=0;orthogonalLoop=1;jettySize=auto;html=1;exitX=0;exitY=0.5;exitDx=0;exitDy=0;entryX=0.5;entryY=0;entryDx=0;entryDy=0;startArrow=classic;startFill=1;" edge="1" parent="1" source="7Jza5CA4qE4BxIB_BADM-6" target="7Jza5CA4qE4BxIB_BADM-2">
          <mxGeometry relative="1" as="geometry"/>
        </mxCell>
        <mxCell id="GdXQ_3ZXdij7vv1rvwBt-7" style="edgeStyle=none;rounded=0;orthogonalLoop=1;jettySize=auto;html=1;exitX=0;exitY=0.5;exitDx=0;exitDy=0;entryX=1;entryY=0.5;entryDx=0;entryDy=0;startArrow=classic;startFill=1;" edge="1" parent="1" source="7Jza5CA4qE4BxIB_BADM-6" target="7Jza5CA4qE4BxIB_BADM-4">
          <mxGeometry relative="1" as="geometry"/>
        </mxCell>
        <mxCell id="7Jza5CA4qE4BxIB_BADM-6" value="Peer" style="ellipse;whiteSpace=wrap;html=1;aspect=fixed;" parent="1" vertex="1">
          <mxGeometry x="300" y="310" width="70" height="70" as="geometry"/>
        </mxCell>
        <mxCell id="GdXQ_3ZXdij7vv1rvwBt-13" value="Peer" style="ellipse;whiteSpace=wrap;html=1;aspect=fixed;" vertex="1" parent="1">
          <mxGeometry x="552" y="150" width="70" height="70" as="geometry"/>
        </mxCell>
        <mxCell id="GdXQ_3ZXdij7vv1rvwBt-15" value="Peer" style="ellipse;whiteSpace=wrap;html=1;aspect=fixed;" vertex="1" parent="1">
          <mxGeometry x="552" y="380" width="70" height="70" as="geometry"/>
        </mxCell>
        <mxCell id="GdXQ_3ZXdij7vv1rvwBt-21" value="Peer" style="ellipse;whiteSpace=wrap;html=1;aspect=fixed;" vertex="1" parent="1">
          <mxGeometry x="452" y="220" width="70" height="70" as="geometry"/>
        </mxCell>
        <mxCell id="GdXQ_3ZXdij7vv1rvwBt-23" value="Peer" style="ellipse;whiteSpace=wrap;html=1;aspect=fixed;direction=east;" vertex="1" parent="1">
          <mxGeometry x="452" y="310" width="70" height="70" as="geometry"/>
        </mxCell>
        <mxCell id="GdXQ_3ZXdij7vv1rvwBt-27" value="Peer" style="ellipse;whiteSpace=wrap;html=1;aspect=fixed;" vertex="1" parent="1">
          <mxGeometry x="652" y="220" width="70" height="70" as="geometry"/>
        </mxCell>
        <mxCell id="GdXQ_3ZXdij7vv1rvwBt-30" value="Peer" style="ellipse;whiteSpace=wrap;html=1;aspect=fixed;" vertex="1" parent="1">
          <mxGeometry x="652" y="310" width="70" height="70" as="geometry"/>
        </mxCell>
        <mxCell id="GdXQ_3ZXdij7vv1rvwBt-32" style="edgeStyle=none;rounded=0;orthogonalLoop=1;jettySize=auto;html=1;exitX=0.5;exitY=0;exitDx=0;exitDy=0;entryX=0.5;entryY=1;entryDx=0;entryDy=0;startArrow=classic;startFill=1;" edge="1" parent="1" source="GdXQ_3ZXdij7vv1rvwBt-31" target="GdXQ_3ZXdij7vv1rvwBt-13">
          <mxGeometry relative="1" as="geometry"/>
        </mxCell>
        <mxCell id="GdXQ_3ZXdij7vv1rvwBt-33" style="edgeStyle=none;rounded=0;orthogonalLoop=1;jettySize=auto;html=1;exitX=1;exitY=0;exitDx=0;exitDy=0;entryX=0;entryY=0.5;entryDx=0;entryDy=0;startArrow=classic;startFill=1;" edge="1" parent="1" source="GdXQ_3ZXdij7vv1rvwBt-31" target="GdXQ_3ZXdij7vv1rvwBt-27">
          <mxGeometry relative="1" as="geometry"/>
        </mxCell>
        <mxCell id="GdXQ_3ZXdij7vv1rvwBt-34" style="edgeStyle=none;rounded=0;orthogonalLoop=1;jettySize=auto;html=1;exitX=1;exitY=1;exitDx=0;exitDy=0;entryX=0;entryY=0.5;entryDx=0;entryDy=0;startArrow=classic;startFill=1;" edge="1" parent="1" source="GdXQ_3ZXdij7vv1rvwBt-31" target="GdXQ_3ZXdij7vv1rvwBt-30">
          <mxGeometry relative="1" as="geometry"/>
        </mxCell>
        <mxCell id="GdXQ_3ZXdij7vv1rvwBt-35" style="edgeStyle=none;rounded=0;orthogonalLoop=1;jettySize=auto;html=1;exitX=0.5;exitY=1;exitDx=0;exitDy=0;startArrow=classic;startFill=1;" edge="1" parent="1" source="GdXQ_3ZXdij7vv1rvwBt-31" target="GdXQ_3ZXdij7vv1rvwBt-15">
          <mxGeometry relative="1" as="geometry"/>
        </mxCell>
        <mxCell id="GdXQ_3ZXdij7vv1rvwBt-36" style="edgeStyle=none;rounded=0;orthogonalLoop=1;jettySize=auto;html=1;exitX=0;exitY=1;exitDx=0;exitDy=0;entryX=1;entryY=0.5;entryDx=0;entryDy=0;startArrow=classic;startFill=1;" edge="1" parent="1" source="GdXQ_3ZXdij7vv1rvwBt-31" target="GdXQ_3ZXdij7vv1rvwBt-23">
          <mxGeometry relative="1" as="geometry"/>
        </mxCell>
        <mxCell id="GdXQ_3ZXdij7vv1rvwBt-37" style="edgeStyle=none;rounded=0;orthogonalLoop=1;jettySize=auto;html=1;exitX=0;exitY=0;exitDx=0;exitDy=0;entryX=1;entryY=0.5;entryDx=0;entryDy=0;startArrow=classic;startFill=1;" edge="1" parent="1" source="GdXQ_3ZXdij7vv1rvwBt-31" target="GdXQ_3ZXdij7vv1rvwBt-21">
          <mxGeometry relative="1" as="geometry"/>
        </mxCell>
        <mxCell id="GdXQ_3ZXdij7vv1rvwBt-31" value="Hub" style="ellipse;whiteSpace=wrap;html=1;aspect=fixed;direction=east;" vertex="1" parent="1">
          <mxGeometry x="552" y="265" width="70" height="70" as="geometry"/>
        </mxCell>
      </root>
    </mxGraphModel>
  </diagram>
</mxfile>
